<mxfile host="app.diagrams.net" modified="2021-04-14T17:47:41.033Z" agent="5.0 (Macintosh; Intel Mac OS X 11_2_3) AppleWebKit/537.36 (KHTML, like Gecko) Chrome/89.0.4389.114 Safari/537.36" etag="wsOBjZOoe79UUlG4isf0" version="14.6.0" type="github">
  <diagram name="Page-1" id="74e2e168-ea6b-b213-b513-2b3c1d86103e">
    <mxGraphModel dx="872" dy="1332" grid="1" gridSize="10" guides="1" tooltips="1" connect="1" arrows="1" fold="1" page="1" pageScale="1" pageWidth="1100" pageHeight="850" background="#ffffff" math="0" shadow="0">
      <root>
        <mxCell id="0" />
        <mxCell id="1" parent="0" />
        <mxCell id="77e6c97f196da883-1" value="Pool" style="swimlane;html=1;childLayout=stackLayout;startSize=20;rounded=0;shadow=0;labelBackgroundColor=none;strokeWidth=1;fontFamily=Verdana;fontSize=8;align=center;" parent="1" vertex="1">
          <mxGeometry x="100" y="-10" width="940" height="750" as="geometry" />
        </mxCell>
        <mxCell id="77e6c97f196da883-4" value="Lane 1" style="swimlane;html=1;startSize=20;" parent="77e6c97f196da883-1" vertex="1">
          <mxGeometry y="20" width="200" height="730" as="geometry" />
        </mxCell>
        <mxCell id="77e6c97f196da883-12" value="&lt;span style=&quot;font-size: 12px&quot;&gt;EVENTLY DIVISIBLE&lt;br&gt;BY 4&lt;br&gt;&lt;/span&gt;" style="rounded=1;whiteSpace=wrap;html=1;shadow=0;labelBackgroundColor=none;strokeWidth=1;fontFamily=Verdana;fontSize=8;align=center;arcSize=23;" parent="77e6c97f196da883-4" vertex="1">
          <mxGeometry x="40" y="80" width="100" height="60" as="geometry" />
        </mxCell>
        <mxCell id="dYp3Sw0BtCHA6iyIY4xu-5" value="" style="endArrow=classic;startArrow=classic;html=1;" edge="1" parent="77e6c97f196da883-4">
          <mxGeometry width="50" height="50" relative="1" as="geometry">
            <mxPoint x="50" y="220" as="sourcePoint" />
            <mxPoint x="130" y="210" as="targetPoint" />
            <Array as="points">
              <mxPoint x="90" y="140" />
            </Array>
          </mxGeometry>
        </mxCell>
        <mxCell id="dYp3Sw0BtCHA6iyIY4xu-6" value="&lt;span style=&quot;font-size: 12px&quot;&gt;NOT LEAP&lt;/span&gt;" style="rounded=1;whiteSpace=wrap;html=1;shadow=0;labelBackgroundColor=none;strokeWidth=1;fontFamily=Verdana;fontSize=8;align=center;" vertex="1" parent="77e6c97f196da883-4">
          <mxGeometry x="20" y="230" width="60" height="30" as="geometry" />
        </mxCell>
        <mxCell id="dYp3Sw0BtCHA6iyIY4xu-28" value="&lt;font style=&quot;font-size: 14px&quot;&gt;INPUT YEAR&lt;/font&gt;" style="rounded=1;whiteSpace=wrap;html=1;" vertex="1" parent="77e6c97f196da883-4">
          <mxGeometry x="20" y="30" width="160" height="30" as="geometry" />
        </mxCell>
        <mxCell id="dYp3Sw0BtCHA6iyIY4xu-29" value="NO" style="text;html=1;strokeColor=none;fillColor=none;align=center;verticalAlign=middle;whiteSpace=wrap;rounded=0;" vertex="1" parent="77e6c97f196da883-4">
          <mxGeometry x="10" y="150" width="40" height="20" as="geometry" />
        </mxCell>
        <mxCell id="dYp3Sw0BtCHA6iyIY4xu-30" value="YES" style="text;html=1;strokeColor=none;fillColor=none;align=center;verticalAlign=middle;whiteSpace=wrap;rounded=0;fontStyle=1" vertex="1" parent="77e6c97f196da883-4">
          <mxGeometry x="110" y="180" width="90" height="20" as="geometry" />
        </mxCell>
        <mxCell id="dYp3Sw0BtCHA6iyIY4xu-38" value="&lt;span style=&quot;font-size: 12px&quot;&gt;LEAP&lt;/span&gt;" style="rounded=1;whiteSpace=wrap;html=1;shadow=0;labelBackgroundColor=none;strokeWidth=1;fontFamily=Verdana;fontSize=8;align=center;fillColor=#f8cecc;strokeColor=#b85450;" vertex="1" parent="77e6c97f196da883-4">
          <mxGeometry x="100" y="230" width="70" height="30" as="geometry" />
        </mxCell>
        <mxCell id="dYp3Sw0BtCHA6iyIY4xu-45" value="" style="endArrow=classic;startArrow=classic;html=1;" edge="1" parent="77e6c97f196da883-4">
          <mxGeometry width="50" height="50" relative="1" as="geometry">
            <mxPoint x="360" y="280" as="sourcePoint" />
            <mxPoint x="260" y="290" as="targetPoint" />
            <Array as="points">
              <mxPoint x="310" y="240" />
            </Array>
          </mxGeometry>
        </mxCell>
        <mxCell id="77e6c97f196da883-5" value="Lane 2" style="swimlane;html=1;startSize=20;" parent="77e6c97f196da883-1" vertex="1">
          <mxGeometry x="200" y="20" width="230" height="730" as="geometry" />
        </mxCell>
        <mxCell id="dYp3Sw0BtCHA6iyIY4xu-34" value="&lt;span style=&quot;font-size: 12px&quot;&gt;EVENLY DIVISIBLE&lt;br&gt;BY 100&lt;br&gt;&lt;/span&gt;" style="rounded=1;whiteSpace=wrap;html=1;shadow=0;labelBackgroundColor=none;strokeWidth=1;fontFamily=Verdana;fontSize=8;align=center;arcSize=23;" vertex="1" parent="77e6c97f196da883-5">
          <mxGeometry x="65" y="180" width="100" height="60" as="geometry" />
        </mxCell>
        <mxCell id="dYp3Sw0BtCHA6iyIY4xu-49" value="YES" style="text;html=1;strokeColor=none;fillColor=none;align=center;verticalAlign=middle;whiteSpace=wrap;rounded=0;" vertex="1" parent="77e6c97f196da883-5">
          <mxGeometry x="150" y="270" width="90" height="20" as="geometry" />
        </mxCell>
        <mxCell id="dYp3Sw0BtCHA6iyIY4xu-50" value="&lt;span style=&quot;font-size: 12px&quot;&gt;LEAP&lt;/span&gt;" style="rounded=1;whiteSpace=wrap;html=1;shadow=0;labelBackgroundColor=none;strokeWidth=1;fontFamily=Verdana;fontSize=8;align=center;fillColor=#f8cecc;strokeColor=#b85450;" vertex="1" parent="77e6c97f196da883-5">
          <mxGeometry x="20" y="320" width="60" height="30" as="geometry" />
        </mxCell>
        <mxCell id="dYp3Sw0BtCHA6iyIY4xu-48" value="NO" style="text;html=1;strokeColor=none;fillColor=none;align=center;verticalAlign=middle;whiteSpace=wrap;rounded=0;fontStyle=1" vertex="1" parent="77e6c97f196da883-5">
          <mxGeometry x="30" y="290" width="40" height="20" as="geometry" />
        </mxCell>
        <mxCell id="dYp3Sw0BtCHA6iyIY4xu-47" value="&lt;span style=&quot;font-size: 12px&quot;&gt;NOT LEAP&lt;/span&gt;" style="rounded=1;whiteSpace=wrap;html=1;shadow=0;labelBackgroundColor=none;strokeWidth=1;fontFamily=Verdana;fontSize=8;align=center;" vertex="1" parent="77e6c97f196da883-5">
          <mxGeometry x="165" y="300" width="60" height="30" as="geometry" />
        </mxCell>
        <mxCell id="77e6c97f196da883-6" value="Lane 3" style="swimlane;html=1;startSize=20;" parent="77e6c97f196da883-1" vertex="1">
          <mxGeometry x="430" y="20" width="200" height="730" as="geometry" />
        </mxCell>
        <mxCell id="dYp3Sw0BtCHA6iyIY4xu-53" value="" style="endArrow=classic;startArrow=classic;html=1;" edge="1" parent="77e6c97f196da883-6">
          <mxGeometry width="50" height="50" relative="1" as="geometry">
            <mxPoint x="150" y="470" as="sourcePoint" />
            <mxPoint x="50" y="470" as="targetPoint" />
            <Array as="points">
              <mxPoint x="110" y="400" />
            </Array>
          </mxGeometry>
        </mxCell>
        <mxCell id="dYp3Sw0BtCHA6iyIY4xu-54" value="&lt;span style=&quot;font-size: 12px&quot;&gt;DIVISIBLE BY 400&lt;br&gt;&lt;/span&gt;" style="rounded=1;whiteSpace=wrap;html=1;shadow=0;labelBackgroundColor=none;strokeWidth=1;fontFamily=Verdana;fontSize=8;align=center;arcSize=23;" vertex="1" parent="77e6c97f196da883-6">
          <mxGeometry x="60" y="340" width="100" height="60" as="geometry" />
        </mxCell>
        <mxCell id="dYp3Sw0BtCHA6iyIY4xu-56" value="NO" style="text;html=1;strokeColor=none;fillColor=none;align=center;verticalAlign=middle;whiteSpace=wrap;rounded=0;fontStyle=1" vertex="1" parent="77e6c97f196da883-6">
          <mxGeometry x="30" y="475" width="40" height="20" as="geometry" />
        </mxCell>
        <mxCell id="dYp3Sw0BtCHA6iyIY4xu-57" value="&lt;span style=&quot;font-size: 12px&quot;&gt;NOT LEAP&lt;/span&gt;" style="rounded=1;whiteSpace=wrap;html=1;shadow=0;labelBackgroundColor=none;strokeWidth=1;fontFamily=Verdana;fontSize=8;align=center;" vertex="1" parent="77e6c97f196da883-6">
          <mxGeometry x="20" y="500" width="60" height="30" as="geometry" />
        </mxCell>
        <mxCell id="dYp3Sw0BtCHA6iyIY4xu-55" value="&lt;span style=&quot;font-size: 12px&quot;&gt;LEAP&lt;/span&gt;" style="rounded=1;whiteSpace=wrap;html=1;shadow=0;labelBackgroundColor=none;strokeWidth=1;fontFamily=Verdana;fontSize=8;align=center;fillColor=#f8cecc;strokeColor=#b85450;arcSize=0;" vertex="1" parent="77e6c97f196da883-6">
          <mxGeometry x="100" y="500" width="60" height="30" as="geometry" />
        </mxCell>
        <mxCell id="dYp3Sw0BtCHA6iyIY4xu-63" value="YES" style="text;html=1;strokeColor=none;fillColor=none;align=center;verticalAlign=middle;whiteSpace=wrap;rounded=0;" vertex="1" parent="77e6c97f196da883-6">
          <mxGeometry x="85" y="475" width="90" height="20" as="geometry" />
        </mxCell>
        <mxCell id="dYp3Sw0BtCHA6iyIY4xu-67" value="Lane 4" style="swimlane;html=1;startSize=20;" vertex="1" parent="77e6c97f196da883-1">
          <mxGeometry x="630" y="20" width="200" height="730" as="geometry" />
        </mxCell>
        <mxCell id="dYp3Sw0BtCHA6iyIY4xu-72" value="&lt;span style=&quot;font-size: 12px&quot;&gt;IS A LEAP&lt;/span&gt;" style="rounded=1;whiteSpace=wrap;html=1;shadow=0;labelBackgroundColor=none;strokeWidth=1;fontFamily=Verdana;fontSize=8;align=center;fillColor=#f8cecc;strokeColor=#b85450;arcSize=0;" vertex="1" parent="dYp3Sw0BtCHA6iyIY4xu-67">
          <mxGeometry x="30" y="460" width="130" height="70" as="geometry" />
        </mxCell>
        <mxCell id="dYp3Sw0BtCHA6iyIY4xu-66" value="Text" style="text;html=1;strokeColor=none;fillColor=none;align=center;verticalAlign=middle;whiteSpace=wrap;rounded=0;" vertex="1" parent="77e6c97f196da883-1">
          <mxGeometry x="830" y="20" width="110" height="730" as="geometry" />
        </mxCell>
        <mxCell id="dYp3Sw0BtCHA6iyIY4xu-41" value="" style="endArrow=classic;html=1;exitX=0.444;exitY=1.067;exitDx=0;exitDy=0;exitPerimeter=0;" edge="1" parent="1" source="dYp3Sw0BtCHA6iyIY4xu-28">
          <mxGeometry width="50" height="50" relative="1" as="geometry">
            <mxPoint x="450" y="200" as="sourcePoint" />
            <mxPoint x="161" y="90" as="targetPoint" />
          </mxGeometry>
        </mxCell>
        <mxCell id="dYp3Sw0BtCHA6iyIY4xu-43" value="" style="endArrow=classic;html=1;exitX=1;exitY=0.5;exitDx=0;exitDy=0;" edge="1" parent="1" source="dYp3Sw0BtCHA6iyIY4xu-38">
          <mxGeometry width="50" height="50" relative="1" as="geometry">
            <mxPoint x="450" y="200" as="sourcePoint" />
            <mxPoint x="330" y="265" as="targetPoint" />
          </mxGeometry>
        </mxCell>
        <mxCell id="dYp3Sw0BtCHA6iyIY4xu-59" value="" style="endArrow=classic;html=1;exitX=0.5;exitY=1;exitDx=0;exitDy=0;" edge="1" parent="1" source="dYp3Sw0BtCHA6iyIY4xu-50">
          <mxGeometry width="50" height="50" relative="1" as="geometry">
            <mxPoint x="310" y="420" as="sourcePoint" />
            <mxPoint x="570" y="400" as="targetPoint" />
          </mxGeometry>
        </mxCell>
        <mxCell id="dYp3Sw0BtCHA6iyIY4xu-74" value="" style="endArrow=classic;html=1;" edge="1" parent="1" target="dYp3Sw0BtCHA6iyIY4xu-72">
          <mxGeometry width="50" height="50" relative="1" as="geometry">
            <mxPoint x="700" y="520" as="sourcePoint" />
            <mxPoint x="500" y="420" as="targetPoint" />
          </mxGeometry>
        </mxCell>
      </root>
    </mxGraphModel>
  </diagram>
</mxfile>
